# xmcd
# 
# Track frame offsets:
#     150
#     14772
#     34364
#     51600
#     69290
#     85974
#     99626
#     120308
#     134336
#     150599
#     165197
#     181726
#     196649
#     207935
#     220231
# 
# Disc length: 3144
# 
# Revision: 1
# Processed by: cddbd v1.5.2PL0 Copyright (c) Steve Scherf et al.
# Submitted via: fre:ac v1.1beta1pre5
# 
DISCID=c90c460f
DTITLE=Various Artist - The Ultimate Country Collection - CD07
DYEAR=2009
DGENRE=Country
TTITLE0=Alan Jackson - Summertime Blues
TTITLE1=Montgomery Gentry - She Couldn't Change Me
TTITLE2=Carolyn Dawn Johnson - Complicated
TTITLE3=Doug Stone - Too Busy Being In Love
TTITLE4=Mary Chapin Carpenter - Shut Up And Kiss Me
TTITLE5=Montgomery Gentry - If You Ever Stopped Loving Me
TTITLE6=Patty Loveless - Lonely Too Long
TTITLE7=Rick Trevino - Running Out Of Reasons To Run
TTITLE8=The Kinleys - Please
TTITLE9=Roseanne Cash - My Baby Thinks He's A Train
TTITLE10=Shenandoah - Next To You, Next To Me
TTITLE11=Willie Nelson - Nothing I Can Do About It Now
TTITLE12=Dave Dudley - Cowboy Boots
TTITLE13=Johnny Cash - I Walk The Line
TTITLE14=The Chalie Daniels Band - Boogie Woogie Fiddle Country Blues
EXTD=
EXTT0=
EXTT1=
EXTT2=
EXTT3=
EXTT4=
EXTT5=
EXTT6=
EXTT7=
EXTT8=
EXTT9=
EXTT10=
EXTT11=
EXTT12=
EXTT13=
EXTT14=
PLAYORDER=
